<svg xmlns="http://www.w3.org/2000/svg" viewBox="0 0 64 64"><path fill="#e5e5e4" d="M57.48 58.78V62a2 2 0 0 1-2 2H37.26l5.2-16.18 5.01 10.96h10.01z"/><path fill="#e5e5e4" d="M57.48 36.66v20.45h-8.94l-5.32-11.65 2.83-8.8z"/><path fill="#eff0ee" d="M57.48 15.04v19.95h-10.9l2.65-8.25.31-.95 4.1-12.75h1.83c1.12-.01 2.01.89 2.01 2z"/><path fill="#ededeb" d="M41.18 46.34 35.5 64h-9.37l2.46-11.97.22-1.08.94-4.61z"/><path fill="#e5e5e4" d="M57.48 36.66v-1.67h-10.9l2.65-8.25.31-.95 4.1-12.75h-1.76l-2.34 7.28-11.01-4.76.82-2.52H37.6l-.7 2.16H19.71v-2.17h-1.67v14.32l-4.31 2.8-.89.58-4.72 3.07-.07.05-1.53.99v1.99l1.89-1.23 1.61 7.68.21 1 2.21 10.56.21.99L14.36 64h1.71l-1.79-8.56 3.97-.94.97-.23 4.9-1.17.97-.23 1.71-.41L24.43 64h1.71l2.45-11.97.22-1.09.94-4.6h11.43L35.5 64h1.76l5.2-16.18 5.01 10.96h10.01v-1.67h-8.94l-5.33-11.65 2.83-8.8h11.44zm-8.24-15.38-1.26 3.92-11.21-4.23 1.45-4.45 11.02 4.76zM29.58 35.85l-7.7 2.93-2.14-9.4 9.84 6.47zm-9.87-19.64h16.86l-1.44 4.42H19.71v-4.42zm-1.09 12.76 2.32 10.17-4.75 1.8-2.06-9.05 4.49-2.92zm-8.71 5.66 3.32-2.16 2.01 8.84-3.64 1.38-1.69-8.06zm4.16 19.83-2.26-10.78 3.66-1.39 2.55 11.23-3.95.94zM19 53.28l-2.58-11.35 4.75-1.81 2.73 12-4.9 1.16zm8.02-1.9-2.15.51-2.77-12.13 7.91-3.01-1.63 7.92-.34 1.67-1.02 5.04zm14.7-6.71H30.1l1.64-8.01h12.55l-2.57 8.01zm-9.51-9.68 4.25-13.06 11.21 4.22-2.84 8.84H32.21z"/><path fill="#c8c8c8" d="M26.8 52.46 24.43 64h-8.36l-1.79-8.56 3.96-.94.98-.23 4.89-1.17.98-.23zM18.02 53.52l-3.95.94-2.26-10.78 3.66-1.39zM15.24 41.31l-3.64 1.38-1.69-8.06 3.32-2.16zM20.94 39.14l-4.75 1.8-2.06-9.05 4.49-2.92zM30.02 36.76l-1.63 7.91-.34 1.67-1.03 5.04-2.15.51-2.77-12.13zM29.58 35.85l-7.7 2.93-2.14-9.4z"/><path fill="#ededeb" d="m44.29 36.66-2.57 8.01H30.1l1.64-8.01z"/><path fill="#e5e5e4" d="m36.57 16.21-1.44 4.42H19.71v-4.42zM37.6 13.03l-.7 2.17H19.71v-2.17z"/><path fill="#c8c8c8" d="m51.89 13.03-2.34 7.29-11.01-4.76.82-2.53zM49.24 21.28l-1.26 3.92-11.21-4.23 1.46-4.45zM47.67 26.15l-2.84 8.84H32.21l4.25-13.06z"/><path fill="#eff0ee" d="M18.04 13.03v14.32l-4.31 2.8-.89.58-4.72 3.07-.07.05-1.53.99v-19.8a2 2 0 0 1 2-2h9.52z"/><path fill="#ededeb" d="M14.36 64H8.52a2 2 0 0 1-2-2V36.84l1.89-1.23 1.61 7.68.21 1 2.21 10.56.21.99L14.36 64z"/><path fill="#fff" d="m30.88 35.36-.63.24-.67.26-7.7 2.93-2.14-9.4-.36-1.57-.03-.11-.49.11-.49.11.24 1.05 2.32 10.17-4.75 1.8-2.06-9.05-.4-1.74-.89.58.39 1.73 2.01 8.84-3.64 1.38-1.58.6.21 1 1.58-.6 3.66-1.39 2.55 11.23-3.95.94-1.63.38.21.99 1.63-.39 3.97-.94.97-.23 4.9-1.17.97-.23 1.71-.41 1.79-.42.22-1.09-1.79.43-2.15.51-2.76-12.14 7.91-3.01.59-.23.62-.23-.34-.93zm-6.99 16.76L19 53.28l-2.58-11.35 4.75-1.81 2.72 12z"/><path fill="#c8c8c8" d="M23.89 52.12 19 53.28l-2.59-11.35 4.75-1.81z"/><path fill="#fff" d="m50.36 20.67-.39.92-.73-.31-11.01-4.76-.72-.31H18.04V15.2h19.68l.82.36 11.01 4.76zM49.55 25.79l-.31.95-1.57-.59-11.21-4.22-.79-.3H18.04v-1h17.82l.91.34 11.21 4.23zM57.48 57.11v1.67H47.47l-5.01-10.96-.67-1.48H28.05l.34-1.67h14.47l.36.79 5.32 11.65z"/><path fill="#ffcb67" d="M57.48 34.99v1.67H46.05l-2.83 8.8-.76 2.36L37.26 64H35.5l5.68-17.66.54-1.67 2.57-8.01H31.74l-1.64 8.01-.35 1.67-.94 4.61-.22 1.08L26.13 64h-1.7l2.37-11.54.22-1.08 1.03-5.04.34-1.67 1.63-7.91.11-.55-.55-.36-9.84-6.47-.87-.57-.25.16-4.49 2.92-.9.58-3.32 2.16 1.69 8.06.21.99 2.26 10.78.21.98L16.07 64h-1.71l-1.71-8.17-.21-.99-2.21-10.56-.21-.99-1.61-7.68-1.89 1.23v-1.99l1.52-1 .08-.04 4.72-3.07.89-.59 4.31-2.79V13.03h1.67v14.33l10.9 7.16 4.19-12.89.33-1 1.44-4.42.33-1.01.7-2.17h1.76l-.82 2.53-.31.96-1.46 4.45-.31.96-4.25 13.06h12.62l2.84-8.84.31-.95 1.26-3.92.31-.96 2.34-7.29h1.76l-4.1 12.76-.31.95-2.66 8.25z"/><path fill="#e9715e" d="M43.55 12.72C43.55 5.69 37.86 0 30.84 0c-7.02 0-12.72 5.69-12.72 12.72 0 5.51 3.51 10.19 8.41 11.95l4.31 10.94 4.31-10.94c4.89-1.77 8.4-6.45 8.4-11.95z"/><path fill="#fff" d="M39.53 12.72a8.7 8.7 0 0 1-8.7 8.7c-4.8 0-8.7-3.89-8.7-8.7s3.89-8.7 8.7-8.7c4.81 0 8.7 3.89 8.7 8.7z"/></svg>